<svg width="59" height="59" viewBox="0 0 59 59" fill="none" xmlns="http://www.w3.org/2000/svg">
<rect width="59" height="59" rx="4" fill="white"/>
<path fill-rule="evenodd" clip-rule="evenodd" d="M42.666 19.6758C41.1063 18.1158 38.5763 18.1158 37.017 19.6758C35.457 21.2358 35.457 23.7652 37.017 25.3249C38.5767 26.8849 41.1063 26.8849 42.666 25.3249C44.226 23.7648 44.2257 21.2355 42.666 19.6758ZM20.9827 19.6758C19.423 18.1158 16.8933 18.1158 15.3333 19.6758C13.7737 21.2358 13.7737 23.7652 15.3333 25.3249C16.8933 26.8849 19.423 26.8849 20.9827 25.3249C22.5423 23.7648 22.5423 21.2355 20.9827 19.6758ZM39.8417 27.0962C37.5567 27.0962 35.6837 28.9699 35.6837 31.2546V43.574C35.6837 43.7073 35.7923 43.816 35.9253 43.816H43.7583C43.8913 43.816 44 43.7073 44 43.574V31.2546C44 28.9696 42.1267 27.0962 39.8417 27.0962ZM18.1583 27.0962C15.8733 27.0962 14 28.9699 14 31.2546V43.574C14 43.7073 14.1087 43.816 14.242 43.816H22.0747C22.208 43.816 22.3167 43.7073 22.3167 43.574V31.2546C22.3167 28.9696 20.4433 27.0962 18.1583 27.0962Z" fill="#E297DC"/>
<path d="M24.3857 27.3295C24.3857 24.7938 26.4644 22.7152 29.0001 22.7152C31.5357 22.7152 33.6144 24.7935 33.6144 27.3295V43.758C33.6144 43.8913 33.5057 44 33.3727 44H24.6277C24.4944 44 24.3857 43.8913 24.3857 43.758V27.3295Z" fill="#CF67CA"/>
<path d="M26.1754 15.1698C27.7351 13.6101 30.2647 13.6101 31.8244 15.1698C33.3841 16.7294 33.3841 19.2588 31.8244 20.8188C30.2647 22.3788 27.7354 22.3785 26.1754 20.8188C24.6154 19.2591 24.6154 16.7298 26.1754 15.1698Z" fill="#CF67CA"/>
</svg>
