<svg width="45" height="44" viewBox="0 0 45 44" fill="none" xmlns="http://www.w3.org/2000/svg">
<path d="M22.48 43.6709C34.2633 43.6709 43.8155 34.1187 43.8155 22.3355C43.8155 10.5522 34.2633 1 22.48 1C10.6968 1 1.14456 10.5522 1.14456 22.3355C1.14456 34.1187 10.6968 43.6709 22.48 43.6709Z" stroke="white" stroke-opacity="0.16" stroke-width="0.664546"/>
<path d="M29.9809 22.3341V27.0109C29.9894 27.5997 29.8101 28.176 29.469 28.6562C29.128 29.1363 28.643 29.4954 28.0842 29.6815C27.7936 29.7855 27.4872 29.8384 27.1785 29.8378H17.8062C17.4357 29.8423 17.0681 29.7729 16.7247 29.6339C16.3813 29.4948 16.069 29.2888 15.806 29.0279C15.543 28.7669 15.3346 28.4562 15.1929 28.1139C15.0512 27.7716 14.979 27.4045 14.9806 27.034V17.6371C14.9789 16.9811 15.2084 16.3455 15.6289 15.8421C16.0494 15.3386 16.634 14.9996 17.2798 14.8845C17.477 14.8464 17.6775 14.8283 17.8784 14.8305H27.0895C27.7285 14.8196 28.3525 15.0241 28.8611 15.411C29.3698 15.7979 29.7333 16.3448 29.8933 16.9635C29.9533 17.2241 29.9815 17.491 29.9774 17.7584C29.9798 19.2836 29.9809 20.8089 29.9809 22.3341ZM23.0752 21.4825V20.7731C23.0752 20.6273 23.0415 20.5783 22.8873 20.5797C22.2233 20.5876 21.5609 20.5876 20.9002 20.5797C20.7473 20.5797 20.7067 20.6266 20.7067 20.7745C20.7146 22.9816 20.7186 25.1893 20.7186 27.3978C20.7186 27.5303 20.7607 27.566 20.8868 27.566H22.9014C23.0591 27.566 23.0892 27.512 23.0878 27.3698V25.302C23.0878 24.6711 23.0878 24.0438 23.1032 23.4157C23.1086 23.2476 23.1488 23.0825 23.2212 22.9308C23.2936 22.779 23.3966 22.6439 23.5238 22.5339C23.6527 22.403 23.8142 22.3087 23.9915 22.2607C24.1689 22.2127 24.3558 22.2127 24.5332 22.2607C24.7106 22.3087 24.872 22.403 25.0009 22.5339C25.1299 22.6648 25.2217 22.8276 25.2671 23.0056C25.3385 23.2848 25.3701 23.5728 25.361 23.8608C25.361 25.0363 25.361 26.2027 25.361 27.3733C25.361 27.5247 25.403 27.5667 25.5523 27.5646C26.1937 27.5646 26.8372 27.5548 27.4793 27.5646C27.6587 27.5646 27.7176 27.5275 27.7162 27.3361C27.7064 26.1851 27.7162 25.0349 27.7162 23.8839C27.725 23.5093 27.707 23.1345 27.6622 22.7624C27.6303 22.2053 27.4088 21.6759 27.0344 21.2621C26.6601 20.8483 26.1554 20.5751 25.6042 20.4878C25.1645 20.3824 24.7032 20.4113 24.28 20.5709C23.8569 20.7304 23.4914 21.0133 23.2308 21.383C23.2174 21.4126 23.1957 21.4377 23.1683 21.4552C23.141 21.4727 23.1091 21.482 23.0766 21.4818L23.0752 21.4825ZM19.6181 24.076V20.7836C19.6181 20.6273 19.5761 20.579 19.4162 20.5804C18.7676 20.5883 18.1193 20.5883 17.4711 20.5804C17.3232 20.5804 17.2763 20.621 17.2763 20.7717C17.2842 22.9722 17.2882 25.1716 17.2882 27.3698C17.2882 27.5177 17.3302 27.5681 17.4816 27.566C18.1302 27.5581 18.7786 27.5581 19.4268 27.566C19.595 27.566 19.6265 27.5155 19.6251 27.3613C19.6132 26.2665 19.6167 25.1695 19.6167 24.0725L19.6181 24.076ZM17.1375 18.5021C17.1364 18.6634 17.1687 18.8233 17.2323 18.9716C17.2959 19.1199 17.3895 19.2535 17.5072 19.3639C17.6249 19.4744 17.7641 19.5593 17.9161 19.6134C18.0682 19.6675 18.2298 19.6896 18.3908 19.6782C18.5535 19.6901 18.7169 19.6686 18.871 19.6151C19.0252 19.5616 19.1668 19.4773 19.2872 19.3672C19.4076 19.2571 19.5043 19.1235 19.5713 18.9748C19.6383 18.826 19.6743 18.6652 19.677 18.5021C19.6782 18.3392 19.6454 18.178 19.5807 18.0285C19.516 17.8791 19.4208 17.7448 19.3013 17.6343C19.1818 17.5237 19.0405 17.4393 18.8865 17.3864C18.7325 17.3336 18.5691 17.3134 18.4069 17.3273C18.2451 17.3156 18.0827 17.3372 17.9297 17.3908C17.7766 17.4445 17.6362 17.529 17.5172 17.6392C17.3982 17.7493 17.3031 17.8828 17.2377 18.0312C17.1724 18.1796 17.1383 18.3399 17.1375 18.5021Z" fill="white"/>
</svg>
