<svg width="44" height="44" viewBox="0 0 44 44" fill="none" xmlns="http://www.w3.org/2000/svg">
<path d="M22.3355 43.6709C34.1187 43.6709 43.6709 34.1187 43.6709 22.3355C43.6709 10.5522 34.1187 1 22.3355 1C10.5522 1 1 10.5522 1 22.3355C1 34.1187 10.5522 43.6709 22.3355 43.6709Z" stroke="white" stroke-opacity="0.16" stroke-width="0.664546"/>
<path d="M13.995 27.3681C15.748 27.5683 17.5099 27.0772 18.9066 25.9992C17.9978 25.9323 17.1492 25.5202 16.5346 24.8475C16.1997 24.4877 15.9516 24.0562 15.8091 23.5858C16.2847 23.6525 16.7683 23.6344 17.2376 23.5325C16.4812 23.344 15.8104 22.906 15.3336 22.2893C14.8568 21.6726 14.6018 20.9131 14.6098 20.1336C15.0754 20.358 15.579 20.4932 16.0944 20.5325C15.3903 20.0285 14.8969 19.2825 14.7086 18.4373C14.5228 17.5912 14.6609 16.7061 15.0955 15.9567C15.9572 17.0102 17.0285 17.873 18.2415 18.4904C19.4545 19.1077 20.7826 19.4661 22.1414 19.5427C22.1155 19.3528 22.084 19.1839 22.0714 19.0135C22.0107 18.1175 22.3022 17.2331 22.8837 16.5487C23.4652 15.8643 24.2909 15.4338 25.185 15.349C25.6758 15.2966 26.1722 15.3535 26.6385 15.5155C27.1049 15.6775 27.5296 15.9407 27.8822 16.2861C27.9247 16.3309 27.9789 16.3627 28.0387 16.3778C28.0986 16.393 28.1614 16.3908 28.2201 16.3716C28.8392 16.2268 29.4356 15.998 29.9928 15.6917C30.0397 15.6658 30.0888 15.6413 30.1372 15.6216H30.1946C29.9533 16.3592 29.4794 16.9986 28.8439 17.4441C29.4602 17.3592 30.0655 17.2083 30.6495 16.9941C30.5302 17.1757 30.3985 17.349 30.2556 17.5128C29.8736 17.9004 29.4769 18.2733 29.0766 18.6448C29.0368 18.6736 29.0047 18.7119 28.9834 18.7562C28.9621 18.8005 28.9522 18.8495 28.9547 18.8986C29.0062 20.7328 28.539 22.5443 27.6067 24.1248C26.7831 25.6029 25.5737 26.8297 24.1076 27.6744C22.8399 28.3951 21.4235 28.8146 19.9678 28.9004C18.736 28.9922 17.4978 28.8538 16.3166 28.4924C15.5309 28.2509 14.7802 27.9078 14.0833 27.4719C14.0532 27.4536 14.0273 27.4305 13.9978 27.4109L13.995 27.3681Z" fill="white"/>
</svg>
