<svg width="23" height="23" viewBox="0 0 23 23" fill="none" xmlns="http://www.w3.org/2000/svg">
<path d="M23 7.18182V1.27273C23 0.545455 22.4524 0 21.7222 0H15.7897C14.6944 0 13.5992 0.363636 12.6865 0.909091C12.2302 1.18182 11.8651 1.54545 11.5 2C10.496 0.818182 8.94444 0 7.21032 0H1.27778C0.547619 0 0 0.545455 0 1.27273V7.18182C0 8.90909 0.821428 10.3636 2.00794 11.4545C0.821428 12.4545 0 14 0 15.7273V21.6364C0 22.3636 0.547619 22.9091 1.27778 22.9091H7.21032C7.94048 22.9091 8.48809 22.3636 8.48809 21.6364C8.48809 20.9091 7.94048 20.3636 7.21032 20.3636H2.55556V15.7273C2.55556 14.0909 3.83333 12.8182 5.47619 12.8182H10.131V17.4545C10.131 20.5455 12.5952 23 15.6984 23H21.631C22.3611 23 22.9087 22.4545 22.9087 21.7273V15.8182C22.9087 14.0909 22.0873 12.6364 20.9008 11.5455C22.2698 10.4545 23 8.90909 23 7.18182ZM5.56746 10.1818C3.9246 10.1818 2.64683 8.90909 2.64683 7.27273V2.54545H7.30159C8.94444 2.54545 10.2222 3.81818 10.2222 5.45455V10.0909H5.56746V10.1818ZM20.4444 15.7273V20.3636H15.7897C14.1468 20.3636 12.869 19.0909 12.869 17.4545V12.8182H17.5238C19.0754 12.7273 20.4444 14.0909 20.4444 15.7273ZM12.7778 10.1818V5.54545C12.7778 4.54545 13.2341 3.63636 14.0556 3.09091C14.5119 2.72727 15.1508 2.54545 15.6984 2.54545H20.3532V7.18182C20.3532 8.81818 19.0754 10.0909 17.4325 10.0909H12.7778V10.1818Z" fill="white"/>
</svg>
